<svg width="376" height="84" viewBox="0 0 376 84" fill="none" xmlns="http://www.w3.org/2000/svg">
<g clip-path="url(#clip0_1058_499)">
<path d="M22.4867 35.1303L5.20785 30.5006C2.85192 29.8682 2.06451 26.9272 3.78797 25.2038L28.0619 0.926674C28.862 0.126608 30.0289 -0.186461 31.1199 0.107634L64.2894 8.99058C66.6453 9.61988 67.4327 12.564 65.7093 14.2875L53.0568 26.9399C45.0625 34.9342 33.4094 38.0586 22.4867 35.1303Z" fill="#1788D6"/>
<path d="M43.6464 62.0418L48.2855 79.3429C48.918 81.6988 46.7613 83.8523 44.4085 83.223L11.2327 74.3338C10.1385 74.0397 9.28467 73.1858 8.99374 72.0948L0.110795 38.9253C-0.518506 36.5694 1.63503 34.4159 3.98779 35.0483L21.2825 39.6843C32.1956 42.6094 40.7181 51.1319 43.6432 62.0418H43.6464Z" fill="#65B4E9"/>
<path d="M82.4072 55.2708L58.1333 79.5447C56.4098 81.2682 53.4657 80.4807 52.8364 78.1248L48.2005 60.8396C45.2722 49.917 48.3934 38.2638 56.3909 30.2695L69.0433 17.6171C70.7667 15.8936 73.7109 16.681 74.3402 19.0369L83.2294 52.2128C83.5235 53.307 83.2105 54.4707 82.4104 55.2708H82.4072Z" fill="#004993"/>
</g>
<path d="M107.88 60.3392C107.869 58.5281 107.803 56.9503 107.675 55.617C109.647 56.5725 111.43 57.2448 113.014 57.6337C114.597 58.0225 116.13 58.2225 117.608 58.2225C119.086 58.2225 120.358 57.9781 121.597 57.4948C122.836 57.0059 123.775 56.3226 124.425 55.4337C125.069 54.5448 125.414 53.5281 125.453 52.3837C125.48 51.717 125.391 51.0892 125.203 50.5114C125.014 49.9281 124.703 49.3392 124.258 48.7392C123.814 48.1392 123.036 47.3281 121.93 46.3059C120.819 45.2892 119.247 43.8781 117.208 42.0837L115.169 40.2781C114.397 39.5892 113.703 38.9059 113.08 38.2281C112.458 37.5503 111.941 36.9003 111.53 36.2837C111.114 35.667 110.797 35.1003 110.58 34.5948C110.364 34.0892 110.197 33.5281 110.086 32.9059C109.975 32.2837 109.93 31.6503 109.953 31.0003C110.008 29.3559 110.508 27.8225 111.447 26.3948C112.386 24.9614 113.764 23.817 115.586 22.9559C117.403 22.0948 119.78 21.667 122.714 21.667C124.819 21.667 127.391 21.9559 130.436 22.5281C130.436 23.7559 130.508 25.267 130.68 27.0503C127.819 26.017 125.208 25.5059 122.841 25.5059C121.214 25.5059 119.841 25.7781 118.725 26.317C117.608 26.8559 116.753 27.5503 116.153 28.4003C115.553 29.2448 115.241 30.1114 115.208 31.0059C115.191 31.5392 115.247 32.0614 115.38 32.567C115.514 33.0725 115.725 33.5559 116.014 34.017C116.425 34.6837 116.941 35.3559 117.564 36.0337C118.186 36.7114 119.047 37.5392 120.147 38.5114C120.425 38.7392 121.475 39.6337 123.303 41.2059C125.13 42.767 126.464 43.9781 127.297 44.8448C128.13 45.7059 128.786 46.5003 129.275 47.2337C129.758 47.967 130.13 48.7614 130.386 49.6114C130.641 50.4614 130.753 51.3837 130.719 52.3725C130.664 53.9003 130.291 55.3059 129.591 56.5948C128.891 57.8837 127.919 58.9392 126.669 59.7614C125.419 60.5837 124.041 61.1614 122.53 61.5059C121.025 61.8503 119.458 62.0225 117.825 62.0225C116.519 62.0225 115.175 61.9226 113.791 61.7225C112.403 61.517 110.436 61.0614 107.886 60.3559L107.88 60.3392Z" fill="#4C4C4C"/>
<path d="M143.08 61.4504L144.191 50.6449L145.719 30.4449L145.963 26.0449C146.025 24.9338 146.08 23.6615 146.13 22.2227C150.497 22.2393 154.969 22.2504 159.547 22.2504L168.791 22.2227H171.747C171.563 23.556 171.43 24.8949 171.347 26.2449L168.775 26.1004C168.141 26.0615 167.041 26.0338 165.486 26.0115C163.93 25.9949 162.391 25.9838 160.863 25.9838C156.302 25.9838 153.125 26.0115 151.325 26.0727L150.325 39.5227C153.297 39.5782 155.963 39.606 158.325 39.606C160.897 39.606 164.269 39.5671 168.447 39.4893C168.263 40.8282 168.13 42.1504 168.047 43.456L158.075 43.3727C156.125 43.3727 153.402 43.4115 149.925 43.4893L148.902 57.6838L151.919 57.7115C157.391 57.7115 161.019 57.6949 162.813 57.656C164.602 57.6171 166.702 57.5338 169.102 57.3949C168.919 58.8115 168.786 60.1615 168.697 61.4449C164.041 61.406 160.108 61.3838 156.902 61.3838L143.097 61.4449L143.08 61.4504Z" fill="#4C4C4C"/>
<path d="M182.419 61.4507C183.041 56.5063 183.641 50.4674 184.213 43.3341C184.791 36.1952 185.241 29.1618 185.563 22.2285C186.913 22.2452 187.936 22.2563 188.641 22.2563L191.369 22.2285L189.786 40.4341L188.475 57.6063L194.041 57.6341C198.186 57.6341 201.097 57.623 202.791 57.5896C204.48 57.5618 206.119 57.4952 207.708 57.4007C207.547 58.6174 207.402 59.9674 207.269 61.4507C202.836 61.4118 198.919 61.3896 195.519 61.3896L182.419 61.4507Z" fill="#4C4C4C"/>
<path d="M217.824 61.4501L218.474 54.839L219.541 41.0724L220.402 27.5057C220.446 26.7224 220.485 25.9335 220.513 25.1501L220.585 22.2168L223.502 22.2446L226.252 22.2168C225.746 27.0057 225.319 32.0057 224.974 37.2168C224.385 45.5724 223.891 53.6446 223.491 61.4446L220.83 61.3835C220.491 61.3835 219.491 61.4001 217.824 61.4446V61.4501Z" fill="#4C4C4C"/>
<path d="M236.58 60.3392C236.569 58.5281 236.497 56.9503 236.369 55.617C238.391 56.5725 240.214 57.2448 241.841 57.6337C243.464 58.0225 245.036 58.2225 246.547 58.2225C248.058 58.2225 249.364 57.9781 250.63 57.4948C251.897 57.0059 252.864 56.3226 253.525 55.4337C254.186 54.5448 254.536 53.5281 254.575 52.3837C254.602 51.717 254.514 51.0892 254.319 50.5114C254.13 49.9281 253.802 49.3392 253.352 48.7392C252.897 48.1392 252.102 47.3281 250.969 46.3059C249.83 45.2892 248.214 43.8781 246.13 42.0837L244.041 40.2781C243.252 39.5892 242.541 38.9059 241.902 38.2281C241.264 37.5503 240.736 36.9003 240.314 36.2837C239.886 35.667 239.564 35.1003 239.341 34.5948C239.114 34.0892 238.947 33.5281 238.836 32.9059C238.719 32.2837 238.675 31.6503 238.697 31.0003C238.752 29.3559 239.264 27.8225 240.23 26.3948C241.191 24.9614 242.608 23.817 244.469 22.9559C246.33 22.0948 248.769 21.667 251.775 21.667C253.93 21.667 256.564 21.9559 259.686 22.5281C259.686 23.7559 259.764 25.267 259.93 27.0503C257.002 26.017 254.319 25.5059 251.897 25.5059C250.23 25.5059 248.819 25.7781 247.68 26.317C246.536 26.8559 245.658 27.5503 245.047 28.4003C244.436 29.2448 244.114 30.1114 244.08 31.0059C244.064 31.5392 244.119 32.0614 244.258 32.567C244.397 33.0725 244.614 33.5559 244.908 34.017C245.33 34.6837 245.858 35.3559 246.491 36.0337C247.13 36.7114 248.008 37.5392 249.141 38.5114C249.425 38.7392 250.502 39.6337 252.38 41.2059C254.252 42.767 255.619 43.9781 256.469 44.8448C257.325 45.7059 257.997 46.5003 258.497 47.2337C258.997 47.967 259.375 48.7614 259.636 49.6114C259.897 50.4614 260.008 51.3837 259.975 52.3725C259.925 53.9003 259.536 55.3059 258.819 56.5948C258.102 57.8837 257.108 58.9392 255.825 59.7614C254.541 60.5837 253.13 61.1614 251.586 61.5059C250.041 61.8503 248.436 62.0225 246.769 62.0225C245.43 62.0225 244.052 61.9226 242.636 61.7225C241.219 61.517 239.202 61.0614 236.591 60.3559L236.58 60.3392Z" fill="#4C4C4C"/>
<path d="M272.335 61.4504L273.441 50.6449L274.969 30.4449L275.208 26.0449C275.269 24.9338 275.324 23.6615 275.374 22.2227C279.741 22.2393 284.213 22.2504 288.791 22.2504L298.035 22.2227H300.991C300.808 23.556 300.674 24.8949 300.591 26.2449L298.013 26.1004C297.374 26.0615 296.285 26.0338 294.724 26.0115C293.169 25.9949 291.63 25.9838 290.102 25.9838C285.541 25.9838 282.363 26.0115 280.558 26.0727L279.558 39.5227C282.53 39.5782 285.196 39.606 287.558 39.606C290.13 39.606 293.502 39.5671 297.68 39.4893C297.496 40.8282 297.363 42.1504 297.274 43.456L287.302 43.3727C285.352 43.3727 282.63 43.4115 279.152 43.4893L278.124 57.6838L281.141 57.7115C286.613 57.7115 290.246 57.6949 292.035 57.656C293.824 57.6171 295.919 57.5338 298.324 57.3949C298.141 58.8115 298.008 60.1615 297.919 61.4449C293.263 61.406 289.33 61.3838 286.124 61.3838L272.324 61.4449L272.335 61.4504Z" fill="#4C4C4C"/>
<path d="M334.008 45.2672L325.286 61.6339H319.342C326.831 48.7617 334.214 35.7728 341.303 22.7783H347.942C351.631 35.7117 355.847 48.6394 359.947 61.6339H354.181C352.836 56.1005 351.142 50.6839 349.386 45.2672H334.008ZM348.536 41.4839L344.07 26.6283L335.775 41.4839H348.531H348.536Z" fill="#4C4C4C"/>
<path d="M375.758 22.7832C374.208 35.7165 373.291 48.7054 372.324 61.6388H366.613C367.952 49.4054 369.358 37.0554 370.108 22.7832H375.758Z" fill="#4C4C4C"/>
<defs>
<clipPath id="clip0_1058_499">
<rect width="83.3333" height="83.3333" fill="white"/>
</clipPath>
</defs>
</svg>
